<?xml version="1.0" encoding="UTF-8"?>
<svg width="124px" height="124px" viewBox="0 0 124 124" version="1.1" xmlns="http://www.w3.org/2000/svg" xmlns:xlink="http://www.w3.org/1999/xlink">
    <!-- Generator: Sketch 43.2 (39069) - http://www.bohemiancoding.com/sketch -->
    <title>bobby</title>
    <desc>Created with Sketch.</desc>
    <defs>
        <ellipse id="path-1" cx="61.3779226" cy="61.3713156" rx="61.3779226" ry="61.3713156"></ellipse>
    </defs>
    <g id="05---About" stroke="none" stroke-width="1" fill="none" fill-rule="evenodd">
        <g id="bobby">
            <g id="Group-14" transform="translate(0.470886, 0.563207)">
                <mask id="mask-2" fill="white">
                    <use xlink:href="#path-1"></use>
                </mask>
                <use id="Oval-2" fill="#CB6F58" xlink:href="#path-1"></use>
                <g id="Bobby" mask="url(#mask-2)">
                    <g transform="translate(18.664631, 12.920277)">
                        <g>
                            <path d="M74.2533846,72.1214226 L71.7112308,21.3556485 L67.0558462,21.3556485 C67.223549,19.3371727 67.257613,17.3110504 67.1578462,15.2887029 L21.0041538,15.2887029 C20.904387,17.3110504 20.938451,19.3371727 21.1061538,21.3556485 L12.8650769,21.3556485 L9.87307692,72.1214226 C8.82692308,72.3641004 10.3961538,82.3138912 14.8423077,87.4246862 C14.8423077,87.4246862 14.552,80.2025941 16.6913846,77.7175732 C16.6913846,77.7175732 24.1896923,81.2800837 20.0390769,89.2156485 C20.0390769,89.2156485 24.5270769,89.6548954 26.8835385,82.9569874 C26.8835385,82.9569874 25.0710769,89.2520502 31.3453846,92.8364017 C37.6196923,96.4207531 42.0292308,94.1905439 42.0292308,94.1905439 L42.0867692,94.1905439 C42.0867692,94.1905439 46.4963077,96.4207531 52.7706154,92.8364017 C59.0449231,89.2520502 57.2298462,82.9569874 57.2298462,82.9569874 C59.5836923,89.6524686 64.0743077,89.2156485 64.0743077,89.2156485 C59.9236923,81.2800837 67.422,77.7175732 67.422,77.7175732 C69.5613846,80.2123013 69.2710769,87.4246862 69.2710769,87.4246862 C73.7355385,82.316318 75.2995385,72.3665272 74.2533846,72.1214226 Z" id="Shape" fill="#8A4114" fill-rule="nonzero"></path>
                            <rect id="Rectangle-path" fill="#FDCC9B" fill-rule="nonzero" x="34.442" y="88.1357322" width="15.9329231" height="18.1377406"></rect>
                            <path d="M34.442,90.2761506 C34.442,90.2761506 41.1452308,94.6152301 50.3749231,93.6081172 L50.3749231,88.1357322 L34.442,88.1357322 L34.442,90.2761506 Z" id="Shape" fill="#FCBC85" fill-rule="nonzero"></path>
                            <ellipse id="Oval" fill="#FCBC85" fill-rule="nonzero" cx="11.4658462" cy="60.0117992" rx="7.77553846" ry="9.01548117"></ellipse>
                            <ellipse id="Oval" fill="#FCBC85" fill-rule="nonzero" cx="73.3510769" cy="60.0117992" rx="7.77553846" ry="9.01548117"></ellipse>
                            <path d="M73.3196923,42.7913808 C73.3196923,29.5120502 63.7604615,19.7952301 42.4084615,19.7952301 C21.0564615,19.7952301 11.5076923,29.5120502 11.5076923,42.7913808 C11.5076923,56.0707113 9.26892308,91.0527197 42.4084615,91.0527197 C75.548,91.0527197 73.3196923,56.0707113 73.3196923,42.7913808 Z" id="Shape" fill="#FDCC9B" fill-rule="nonzero"></path>
                            <ellipse id="Oval" fill="#3B2519" fill-rule="nonzero" cx="28.7953846" cy="57.8519665" rx="3.66415385" ry="3.7251046"></ellipse>
                            <ellipse id="Oval" fill="#FFFFFF" fill-rule="nonzero" cx="27.1973846" cy="56.2090377" rx="1.09584615" ry="1.01682008"></ellipse>
                            <path d="M22.9316923,48.6229289 C24.6656923,49.4261925 27.4484615,45.8903766 33.8169231,48.9675314 C34.9781538,49.5281172 35.6712308,44.1697908 28.8476923,44.1697908 C22.9316923,44.167364 21.8829231,48.1375732 22.9316923,48.6229289 Z" id="Shape" fill="#51362A" fill-rule="nonzero"></path>
                            <ellipse id="Oval" fill="#3B2519" fill-rule="nonzero" cx="56.2150769" cy="57.8519665" rx="3.66415385" ry="3.7251046"></ellipse>
                            <ellipse id="Oval" fill="#FFFFFF" fill-rule="nonzero" cx="54.6170769" cy="56.2090377" rx="1.09584615" ry="1.01682008"></ellipse>
                            <path d="M61.6263077,48.6229289 C59.8923077,49.4261925 57.1095385,45.8903766 50.7410769,48.9675314 C49.5798462,49.5281172 48.8867692,44.1697908 55.7103077,44.1697908 C61.6263077,44.167364 62.6724615,48.1375732 61.6263077,48.6229289 Z" id="Shape" fill="#51362A" fill-rule="nonzero"></path>
                            <path d="M42.4084615,70.9541423 C39.1026154,70.9541423 37.1096923,68.4448536 37.1096923,69.6582427 C37.1096923,70.8716318 38.0669231,73.1819247 42.4084615,73.1819247 C46.75,73.1819247 47.7072308,70.8619247 47.7072308,69.6485356 C47.7072308,68.4351464 45.7143077,70.9541423 42.4084615,70.9541423 Z" id="Shape" fill="#FCBC85" fill-rule="nonzero"></path>
                            <path d="M42.4084615,82.1221757 C41.2655385,82.1221757 40.5776923,81.2533891 40.5776923,81.6732218 C40.5776923,82.0930544 40.9072308,82.8866109 42.4084615,82.8866109 C43.9096923,82.8866109 44.2392308,82.0882008 44.2392308,81.6732218 C44.2392308,81.2582427 43.5513846,82.1221757 42.4084615,82.1221757 Z" id="Shape" fill="#FCBC85" fill-rule="nonzero"></path>
                            <path d="M42.4084615,79.0280335 C37.1776923,79.0280335 34.0104615,76.8584937 34.0104615,77.4093724 C34.0104615,77.960251 35.5247692,80.1225105 42.4084615,80.1225105 C49.2921538,80.1225105 50.8064615,77.960251 50.8064615,77.4093724 C50.8064615,76.8584937 47.6496923,79.0280335 42.4084615,79.0280335 Z" id="Shape" fill="#F7945E" fill-rule="nonzero"></path>
                            <path d="M42.4084615,95.4233473 L42.4084615,115.830126 L0,115.830126 C0,107.569372 22.338,95.4233473 42.4084615,95.4233473 Z" id="Shape" fill="#44C5F7" fill-rule="nonzero"></path>
                            <path d="M42.4084615,95.4233473 L42.4084615,115.830126 L84.8195385,115.830126 C84.8195385,107.569372 62.4789231,95.4233473 42.4084615,95.4233473 Z" id="Shape" fill="#44C5F7" fill-rule="nonzero"></path>
                            <path d="M42.4084615,95.4233473 C38.0674338,95.453786 33.7452176,95.9563231 29.5303077,96.9206695 C29.5590769,96.9546444 34.238,102.548368 42.4084615,102.548368 C49.9930769,102.548368 55.0146154,97.7603347 55.7469231,97.0225941 C51.3864696,95.9927103 46.9078249,95.4557324 42.4084615,95.4233473 L42.4084615,95.4233473 Z" id="Shape" fill="#399CF3" fill-rule="nonzero"></path>
                            <path d="M33.6835385,96.1295397 C33.6835385,96.1295397 36.2361538,99.0659414 42.4110769,99.0659414 C48.586,99.0659414 51.1386154,96.1295397 51.1386154,96.1295397 C51.1386154,96.1295397 42.0815385,93.0717992 33.6835385,96.1295397 Z" id="Shape" fill="#FDCC9B" fill-rule="nonzero"></path>
                            <path d="M11.0107692,53.8429289 C13.7569231,53.8429289 16.1447692,45.5020921 15.9041538,40.1583264 C15.6635385,34.8145607 18.9667692,30.936569 25.4476923,28.0244351 C25.4476923,28.0244351 44.0169231,33.3633473 56.9918462,33.3633473 C74.018,33.3633473 69.5012308,53.6876151 72.5952308,53.8502092 C75.6892308,54.0128033 82.6958462,15.7740586 40.9255385,16.7132218 C3.72169231,17.5480335 8.51046154,53.8429289 11.0107692,53.8429289 Z" id="Shape" fill="#8A4114" fill-rule="nonzero"></path>
                            <path d="M46.9356923,4.20560669 C46.9356923,6.52829914 44.9064402,8.41121339 42.4032308,8.41121339 C39.9000214,8.41121339 37.8707692,6.52829914 37.8707692,4.20560669 C37.8707692,1.88291425 39.9000214,5.10645247e-16 42.4032308,8.39735758e-17 C43.605527,-0.000644293339 44.7587799,0.442238237 45.6089318,1.23108219 C46.4590838,2.01992615 46.9363867,3.09001306 46.9356923,4.20560669 Z" id="Shape" fill="#434A54" fill-rule="nonzero"></path>
                            <path d="M42.4058462,3.2348954 C24.0615385,3.2348954 9.17476923,13.1046025 9.17476923,23.8746444 L9.17476923,40.6946444 L75.6316923,40.6946444 L75.6316923,23.8746444 C75.6343077,13.1046025 60.7553846,3.2348954 42.4058462,3.2348954 Z" id="Shape" fill="#283D8C" fill-rule="nonzero"></path>
                            <path d="M42.4032308,29.3858577 C71.3973846,29.3858577 78.4484615,39.592887 78.4484615,39.592887 C78.9035385,40.2529707 78.5844615,40.7917155 77.7396923,40.7917155 L7.06153846,40.7917155 C6.21676923,40.7917155 5.89769231,40.2529707 6.35276923,39.592887 C6.358,39.592887 13.4090769,29.3858577 42.4032308,29.3858577 Z" id="Shape" fill="#223478" fill-rule="nonzero"></path>
                            <path d="M42.4032308,35.7464435 C20.9230769,35.7464435 8.58892308,40.6485356 8.58892308,40.6485356 L76.2175385,40.7917155 C76.2175385,40.7917155 63.8964615,35.7464435 42.4032308,35.7464435 Z" id="Shape" fill="#1A285C" fill-rule="nonzero"></path>
                            <path d="M51.4263077,15.2644351 C51.4263077,13.4953138 51.0732308,12.1314644 50.3801538,11.2044351 C49.7629851,10.3426329 48.7149659,9.83216943 47.6,9.85029289 C47.3012345,9.84763782 47.003052,9.87530576 46.7107692,9.93280335 C46.3577596,9.62034435 45.9276357,9.39287898 45.458,9.27029289 C44.5933271,9.08018557 43.6852526,9.15949813 42.874,9.49598326 C42.5648911,9.15661084 42.1515793,8.91279238 41.6892308,8.79707113 C41.0327692,8.6441841 40.324,8.78251046 39.5969231,9.21447699 C37.8052024,10.2648365 36.0885449,11.4215868 34.4576923,12.6774895 C33.6863782,13.3445565 33.4470451,14.3880125 33.8587692,15.2887029 C33.9555385,15.5119665 34.272,16.3006695 34.6433846,17.2107113 C35.3364615,18.9410042 36.1995385,21.0935565 36.4741538,21.6662762 C37.0624679,22.9549521 38.0294812,24.0641457 39.2647692,24.8671967 C40.4077872,25.5859324 41.7574002,25.9689749 43.1381538,25.9665272 C44.8223544,25.9797478 46.4466804,25.3874825 47.6706154,24.3138912 C48.5403985,23.5467049 49.1402225,22.5536791 49.3915385,21.4648536 C49.4124615,21.3799163 51.4263077,18.734728 51.4263077,15.2644351 Z" id="Shape" fill="#FCB813" fill-rule="nonzero"></path>
                            <path d="M37.2247692,11.578159 L37.366,11.9688703 C37.154402,12.3399834 37.1456631,12.7823593 37.3424615,13.1604184 C37.6693846,13.832636 39.304,17.2155649 39.304,17.2155649 C39.304,17.2155649 40.9386154,15.5896234 43.112,15.5896234 C46.9670769,15.5896234 48.6487692,18.472636 48.6487692,20.4237657 C48.6487692,22.9379079 46.2949231,25.1729707 43.1329231,25.1729707 C40.7267692,25.1729707 38.4252308,23.8503766 37.2456923,21.3362343 C36.8376923,20.474728 34.9336923,15.6333054 34.6512308,14.9829289 C34.3762326,14.3955732 34.525584,13.7113901 35.0252308,13.2696234 C35.496,12.8813389 37.2247692,11.578159 37.2247692,11.578159 Z" id="Shape" fill="#283D8C" fill-rule="nonzero"></path>
                            <path d="M38.5350769,10.8210042 L38.6056923,11.2772385 C39.1653846,11.0345607 39.3301538,11.2335565 39.3301538,11.6461088 L39.4478462,16.2569874 C39.4478462,16.2569874 40.2324615,15.3469456 42.5313846,14.9125523 L42.5313846,12.2285356 C42.5313846,11.8815063 42.6490769,11.534477 42.9289231,11.534477 C43.2087692,11.534477 43.3264615,11.8815063 43.3264615,12.1630126 L43.3264615,13.3133054 C43.3264615,13.6603347 43.3735385,13.985523 42.9524615,14.9174059 C43.9567692,14.9780753 44.8224615,14.9610879 46.4335385,15.6988285 L46.4335385,12.6629289 C46.4335385,12.2940586 46.5041538,11.8815063 46.8781538,11.8815063 C47.2521538,11.8815063 47.2756923,12.4008368 47.2756923,12.6410879 L47.2756923,14.3980753 C47.2756923,14.9174059 47.2521538,15.4391632 46.8075385,15.9366527 C48.0001538,16.8466946 49.0044615,17.8780753 49.3078462,19.7515481 C50.1735385,18.2566527 50.5684615,17.1063598 50.5684615,15.2644351 C50.5684615,11.8159833 49.1666154,10.6535565 47.6,10.6535565 C47.2049596,10.6386599 46.8119083,10.712767 46.4544615,10.8695397 C45.9863077,10.2846862 44.9349231,9.37464435 42.5758462,10.5006695 C42.2489231,9.95949791 41.5296923,9.02518828 40.052,9.8939749 C39.528295,10.1767517 39.0218778,10.4862358 38.5350769,10.8210042 L38.5350769,10.8210042 Z" id="Shape" fill="#283D8C" fill-rule="nonzero"></path>
                            <ellipse id="Oval" fill="#FCB813" fill-rule="nonzero" cx="43.1146154" cy="19.3948117" rx="3.06784615" ry="2.86117155"></ellipse>
                            <path d="M38.7443077,14.7887866 C38.7443077,14.7887866 37.9230769,12.6410879 37.8576923,12.376569 C37.7923077,12.1120502 37.7635385,11.7043515 38.0224615,11.5951464 C38.2813846,11.4859414 38.6292308,11.6606695 38.6292308,12.201841 C38.6292308,12.7430126 38.7443077,14.7887866 38.7443077,14.7887866 Z" id="Shape" fill="#FFFFFF" fill-rule="nonzero"></path>
                            <path d="M42.9263077,19.2540586 C43.3264615,18.2129707 44.4510769,18.1061925 45.0970769,18.1256067 C44.3557825,17.1556858 42.926372,16.8931736 41.8427849,17.5279536 C40.7591978,18.1627337 40.3999613,19.4730596 41.0249231,20.5111297 C41.7624615,20.5038494 42.4869231,20.4043515 42.9263077,19.2540586 Z" id="Shape" fill="#FFFFFF" fill-rule="nonzero"></path>
                            <path d="M43.1538462,19.4724686 C42.7327692,20.5693724 41.9507692,20.7586611 41.2210769,20.7877824 C41.9892729,21.6732932 43.3509614,21.8835973 44.3868665,21.2767185 C45.4227716,20.6698397 45.8036229,19.4386792 45.2723077,18.4143933 C44.4876923,18.3828452 43.5278462,18.5138912 43.1538462,19.4724686 Z" id="Shape" fill="#FFFFFF" fill-rule="nonzero"></path>
                        </g>
                    </g>
                </g>
            </g>
        </g>
    </g>
</svg>